<svg xmlns="http://www.w3.org/2000/svg" viewBox="0 0 64 64" width="64" height="64">
<rect width="64" height="64" rx="12" fill="#0F1115"/>
<rect x="14" y="20" width="22" height="28" rx="2" fill="#F97316"/>
<rect x="18" y="24" width="5" height="5" rx="1" fill="#0F1115"/>
<rect x="27" y="24" width="5" height="5" rx="1" fill="#0F1115"/>
<rect x="18" y="33" width="5" height="5" rx="1" fill="#0F1115"/>
<rect x="27" y="33" width="5" height="5" rx="1" fill="#0F1115"/>
<rect x="22" y="41" width="6" height="7" rx="1" fill="#0F1115"/>
<path d="M36 10 Q36 6 40 6 L54 6 Q58 6 58 10 L58 22 Q58 26 54 26 L44 26 L40 32 L40 26 Q36 26 36 22 Z" fill="#F97316"/>
<rect x="45" y="10" width="3" height="9" rx="1.5" fill="#0F1115"/>
<rect x="45" y="21" width="3" height="3" rx="1.5" fill="#0F1115"/>
</svg>
